HIERARCHY
ROOT root
{
	OFFSET 0.000000 0.000000 0.000000
	CHANNELS 6 Xposition Yposition Zposition Zrotation Yrotation Xrotation
	JOINT lhip
	{
		OFFSET 0.058581 -0.082280 -0.017664
		CHANNELS 3 Zrotation Yrotation Xrotation
		JOINT lknee
		{
			OFFSET 0.043451 -0.386469 0.008037
			CHANNELS 3 Zrotation Yrotation Xrotation
			JOINT lankle
			{
				OFFSET -0.014790 -0.426874 -0.037428
				CHANNELS 3 Zrotation Yrotation Xrotation
				JOINT ltoe
				{
					OFFSET 0.041054 -0.060286 0.122042
					CHANNELS 3 Zrotation Yrotation Xrotation
					End Site
					{
						OFFSET 0.000000 0.000000 0.000000
					}
				}
			}
		}
	}
	JOINT rhip
	{
		OFFSET -0.060310 -0.090513 -0.013543
		CHANNELS 3 Zrotation Yrotation Xrotation
		JOINT rknee
		{
			OFFSET -0.043257 -0.383688 -0.004843
			CHANNELS 3 Zrotation Yrotation Xrotation
			JOINT rankle
			{
				OFFSET 0.019056 -0.420046 -0.034562
				CHANNELS 3 Zrotation Yrotation Xrotation
				JOINT rtoe
				{
					OFFSET -0.034840 -0.062106 0.130323
					CHANNELS 3 Zrotation Yrotation Xrotation
					End Site
					{
						OFFSET 0.000000 0.000000 0.000000
					}
				}
			}
		}
	}
	JOINT lowerback
	{
		OFFSET 0.004439 0.124404 -0.038385
		CHANNELS 3 Zrotation Yrotation Xrotation
		JOINT upperback
		{
			OFFSET 0.004488 0.137956 0.026820
			CHANNELS 3 Zrotation Yrotation Xrotation
			JOINT chest
			{
				OFFSET -0.002265 0.056032 0.002855
				CHANNELS 3 Zrotation Yrotation Xrotation
				JOINT lowerneck
				{
					OFFSET -0.013390 0.211636 -0.033468
					CHANNELS 3 Zrotation Yrotation Xrotation
					JOINT upperneck
					{
						OFFSET 0.010113 0.088937 0.050410
						CHANNELS 3 Zrotation Yrotation Xrotation
						End Site
						{
							OFFSET 0.000000 0.000000 0.000000
						}
					}
				}
				JOINT lclavicle
				{
					OFFSET 0.071702 0.114000 -0.018898
					CHANNELS 3 Zrotation Yrotation Xrotation
					JOINT lshoulder
					{
						OFFSET 0.122921 0.045205 -0.019046
						CHANNELS 3 Zrotation Yrotation Xrotation
						JOINT lelbow
						{
							OFFSET 0.255332 -0.015649 -0.022946
							CHANNELS 3 Zrotation Yrotation Xrotation
							JOINT lwrist
							{
								OFFSET 0.265709 0.012698 -0.007375
								CHANNELS 3 Zrotation Yrotation Xrotation
								End Site
								{
									OFFSET 0.000000 0.000000 0.000000
								}
							}
						}
					}
				}
				JOINT rclavicle
				{
					OFFSET -0.082954 0.112472 -0.023707
					CHANNELS 3 Zrotation Yrotation Xrotation
					JOINT rshoulder
					{
						OFFSET -0.113228 0.046853 -0.008472
						CHANNELS 3 Zrotation Yrotation Xrotation
						JOINT relbow
						{
							OFFSET -0.260127 -0.014369 -0.031269
							CHANNELS 3 Zrotation Yrotation Xrotation
							JOINT rwrist
							{
								OFFSET -0.269108 0.006794 -0.006027
								CHANNELS 3 Zrotation Yrotation Xrotation
								End Site
								{
									OFFSET 0.000000 0.000000 0.000000
								}
							}
						}
					}
				}
			}
		}
	}
}
MOTION
Frames: 11
Frame Time: 0.033333
-1.021049 0.911570 0.761953 108.757050 1.847365 96.660477 27.028105 15.159014 -52.920941 -14.100847 -4.543142 49.609006 -7.138769 -8.929109 -13.729983 0.000000 -0.000000 0.000000 -23.950595 -17.734647 -31.362532 1.867906 -2.654554 68.349605 2.588105 -0.805065 -41.245554 0.000000 -0.000000 0.000000 -0.159356 4.825677 38.258077 -1.672623 0.683914 5.844812 0.128900 2.163571 -0.247428 -4.947342 8.370466 -11.691359 3.310265 3.622268 -12.546811 -16.382486 9.592134 -2.596169 -52.052267 10.119854 -5.415867 73.854415 -86.091090 -57.457035 18.329708 -4.565323 -41.818198 13.648798 2.206178 3.358425 52.921964 3.728961 1.593455 -131.789436 68.906678 -129.134676 -15.587269 8.376109 -47.041309 
-1.015673 0.920580 0.756842 108.914842 2.689073 98.264711 27.552146 16.525456 -55.198827 -13.003890 -2.177630 51.961913 -5.431474 -6.488832 -17.076806 0.000000 -0.000000 0.000000 -23.828954 -18.812102 -31.892014 1.908316 -3.264068 68.065548 2.719408 0.160993 -41.560865 0.000000 -0.000000 0.000000 -0.401980 5.172706 39.014372 -1.906868 0.452752 5.521266 -0.025975 1.959872 0.767839 -5.355438 9.376233 -11.183768 3.929410 2.882323 -15.799368 -18.644699 10.206707 -1.716012 -52.861637 10.875624 -5.067442 -3.769559 -75.358987 21.589683 10.946493 -3.918444 -40.689745 16.906120 -0.398504 5.957777 55.005024 0.908674 2.771432 -123.031704 79.068450 -120.607726 -19.530150 3.569236 -49.167192 
-1.005095 0.934082 0.755803 109.003180 3.551542 99.440088 27.405588 18.360001 -56.777674 -13.033355 -1.131519 54.359305 -4.544648 -6.141062 -19.286411 0.000000 -0.000000 0.000000 -23.406044 -19.316881 -31.148789 1.957910 -3.208971 66.368427 3.014681 0.180182 -41.543376 0.000000 -0.000000 0.000000 -0.937476 5.750005 39.722151 -2.606897 -0.009503 5.264236 0.031085 1.343121 0.977361 -4.909788 9.487448 -10.707526 4.680202 3.781505 -17.409774 -21.426546 10.747247 -1.889872 -50.694300 12.757675 -6.234675 -7.657147 -60.600487 23.033561 2.653117 -5.435132 -33.859964 18.764585 -2.498686 7.032049 54.495236 -2.230528 3.025848 -16.800004 85.448872 -18.468105 -20.951417 2.175305 -49.727686 
-0.987706 0.958992 0.757630 109.406346 4.487467 100.193147 27.450643 19.210036 -57.233747 -13.355589 0.067176 56.437441 -4.861749 -5.341714 -20.214216 0.000000 -0.000000 0.000000 -23.426921 -19.263416 -28.163890 2.144606 -2.704330 62.437745 2.988212 -0.389126 -40.953426 0.000000 -0.000000 0.000000 -1.462138 5.981664 38.834202 -3.979744 -0.467482 5.928225 -0.791526 1.424046 1.457095 -3.087895 9.046832 -8.539875 6.334923 4.148396 -19.093174 -22.550338 11.451123 -1.389171 -47.517061 14.247364 -8.407845 -3.075607 -46.270559 18.356474 -7.894659 -5.570412 -28.999219 19.239534 -3.864177 8.449438 52.014604 -5.081398 1.372917 19.396933 68.848367 18.266832 -15.763435 7.843232 -44.456982 
-0.975680 0.977247 0.762702 109.897301 5.038172 100.743423 27.367560 19.152273 -57.013415 -14.145443 0.352631 56.992528 -4.314108 -4.469404 -20.314591 0.000000 -0.000000 0.000000 -23.106961 -18.971448 -25.700786 2.536033 -1.920295 58.813860 3.644225 -2.114796 -40.220573 0.000000 -0.000000 0.000000 -1.643532 6.237386 38.039920 -4.725677 -0.286808 5.957016 -1.263724 1.632929 1.885798 -2.635645 7.685494 -7.981723 7.547801 4.537352 -19.110754 -22.443936 12.313399 -1.511185 -44.614817 14.895054 -9.695692 -0.476603 -40.780675 15.660819 -11.246673 -4.693375 -27.512400 19.067169 -4.661529 8.344000 50.136976 -7.114323 0.159922 18.990830 59.111871 18.343855 -8.032181 11.905712 -38.239028 
-0.957106 1.004598 0.772681 110.364882 5.369753 101.575975 27.021019 18.782180 -55.958415 -15.297754 1.102312 57.236447 -3.692503 -3.376387 -21.478807 0.000000 -0.000000 0.000000 -23.006054 -18.744835 -21.935064 2.712978 -0.627528 52.838911 4.590314 -3.921176 -38.234061 0.000000 -0.000000 0.000000 -2.278731 7.330843 35.590946 -5.306838 0.132527 6.342069 -1.688476 2.153734 2.253534 -2.436208 5.815912 -6.248930 9.016952 4.804281 -18.863461 -20.887778 13.266302 -1.730052 -40.053273 14.914017 -11.514138 3.334648 -34.702399 8.909454 -14.330744 -4.758058 -27.121548 18.534694 -5.238528 8.012383 47.081511 -9.780800 -1.645996 15.285449 46.710538 16.249362 10.891075 16.718207 -27.886427 
-0.936009 1.033878 0.786773 111.237284 5.411651 101.994562 26.102622 17.778676 -54.083765 -16.569437 1.165482 56.979591 -1.694643 -1.779008 -23.612811 0.000000 -0.000000 0.000000 -22.859910 -18.760959 -17.252823 2.410345 0.938077 46.330000 5.622837 -6.324022 -34.753737 0.000000 -0.000000 0.000000 -2.602513 8.618018 32.681969 -5.482026 0.361342 6.019019 -1.626713 3.212729 3.888053 -2.576668 4.209951 -5.030120 10.384724 3.722156 -17.536866 -17.875548 12.838988 -2.162624 -34.662813 12.825480 -13.411171 5.779997 -27.739128 -0.945414 -15.041777 -4.777120 -26.826237 17.018986 -5.693139 6.732695 43.645232 -12.010836 -2.456250 12.736508 34.894703 14.897517 26.523210 14.488400 -15.006651 
-0.913080 1.066209 0.803654 112.057595 5.177720 101.946599 24.634423 16.522164 -51.454669 -17.782960 0.731042 56.386105 -0.241655 0.107232 -25.752798 0.000000 -0.000000 0.000000 -22.443829 -18.848572 -13.047286 0.897153 2.887633 41.042816 5.738136 -10.080685 -27.391889 0.000000 -0.000000 0.000000 -2.576479 9.048754 30.530133 -5.845731 0.173361 5.152612 -1.421623 3.762927 4.480381 -3.396818 1.732959 -3.069884 12.132628 4.961501 -15.510216 -16.372516 11.277531 -4.276147 -25.240914 12.009095 -15.698653 5.243932 -20.768234 -10.317310 -13.276383 -4.995670 -22.982635 15.121608 -4.593041 6.095781 39.077100 -14.312269 -1.487922 11.349875 25.264023 17.901049 35.667990 5.824207 1.479888 
-0.890999 1.098432 0.822778 112.584314 4.881867 101.906434 22.902433 14.863299 -48.364470 -18.889437 -0.482744 54.921367 1.606409 3.226459 -26.781354 0.000000 -0.000000 0.000000 -21.409976 -17.714229 -11.578836 0.362097 4.771292 39.707221 4.265795 -15.413428 -18.783854 0.000000 -0.000000 0.000000 -2.659804 8.508509 28.737034 -6.043230 -0.017183 2.101378 -1.256248 4.541377 6.319649 -3.873423 -0.839925 -1.403589 13.431212 6.465467 -13.735384 -13.423700 9.109686 -4.916522 -17.429351 10.562502 -17.037649 4.679002 -16.414719 -17.658671 -6.209316 -4.245661 -17.832922 12.595352 -3.001058 5.258836 34.010852 -15.841615 1.281152 10.137360 18.561847 24.261930 42.027391 -5.384647 15.410765 
-0.863865 1.136299 0.849841 112.820348 4.381070 100.364018 21.041982 12.181305 -42.079561 -20.223315 -2.914018 51.321383 2.962429 7.427215 -27.132128 0.000000 -0.000000 0.000000 -20.341454 -15.969587 -11.376648 3.923998 7.302049 42.496012 4.015696 -15.632597 -16.586038 0.000000 -0.000000 0.000000 -2.443485 7.357733 26.637829 -5.384194 -0.237268 3.395111 -1.347906 4.157718 6.141680 -3.932295 -1.423641 -2.025553 12.949997 6.573835 -12.911088 -9.629521 6.294580 -6.737435 -10.500819 8.905783 -16.315067 5.294764 -14.823721 -22.188520 6.245969 -5.044402 -12.042601 8.633472 -0.458840 3.174103 26.777299 -15.719955 3.536939 6.900635 12.469753 26.733257 43.496189 -14.192898 23.528715 
-0.842483 1.164324 0.874093 112.295518 3.861857 98.917669 19.279962 10.838310 -36.117022 -20.618254 -5.362580 47.235862 3.236292 10.458476 -26.557248 0.000000 -0.000000 0.000000 -18.570116 -15.149249 -13.563030 6.570766 7.950800 46.170973 4.403692 -15.727133 -17.825101 0.000000 -0.000000 0.000000 -2.196548 5.515173 25.490877 -5.216473 -0.477227 2.962669 -1.529460 3.702687 6.638145 -3.954313 -0.753045 -1.891322 12.087463 7.220530 -12.139232 -6.662690 4.316321 -7.562308 -6.382949 8.222989 -15.076506 6.235487 -16.868990 -23.679854 18.101830 -6.600997 -8.946092 5.533816 1.927836 1.782552 19.715325 -13.737350 3.269706 5.310284 9.537771 24.270013 37.625418 -15.069417 28.900088 
